# xmcd CD database file
# Generated: Die Mär 25 19:05:39 2003 by KSCD
# 
# Track frame offsets:
#       150
#       15789
#       36198
#       55630
#       78718
#       96508
#       121077
#       144874
#       166755
#       180280
#       202051
#       223802
#       245636
#       268843
#
# Disc length: 3868 seconds
#
# Revision: 34
# Processed by: cddbd v1.4PL0 Copyright (c) Steve Scherf et al.
# Submitted via: Kscd 1.3.3
#
DISCID=bb0f1a0e
DTITLE=Eric Clapton - Reptile
DYEAR=1900
DGENRE=
TTITLE0=Reptile
TTITLE1=Got You On My Mind
TTITLE2=Travelin' Light
TTITLE3=Believe In Life
TTITLE4=Come Back Baby
TTITLE5=Broken Down
TTITLE6=Find Myself
TTITLE7=I Ain't Gonna Stand For It
TTITLE8=I Want A Little Girl
TTITLE9=Second Nature
TTITLE10=Don't Let Me Be Lonely Tonight
TTITLE11=Modern Girl
TTITLE12=Superman Inside
TTITLE13=Son and Sylvia
EXTD=
EXTT0=
EXTT1=
EXTT2=
EXTT3=
EXTT4=
EXTT5=
EXTT6=
EXTT7=
EXTT8=
EXTT9=
EXTT10=
EXTT11=
EXTT12=
EXTT13=
PLAYORDER=
